<svg width="300" height="300" viewBox="0 0 300 300" fill="none" xmlns="http://www.w3.org/2000/svg">
<g clip-path="url(#clip0_1_2)">
<path d="M0 150V300H300V-4.47035e-06H0V150Z" fill="#E7B28B"/>
<path d="M0 150V300H300V-4.47035e-06H0V150ZM230.1 50L232 51.1V55.7L209.9 72.1C197.8 81.1 187.2 88.4 186.5 88.4C185.2 88.3 178 82.9 178 82C178 81.5 184.4 76.9 212.3 56.8L223.2 49H225.7C227 49 229 49.5 230.1 50ZM74.7 52.4C75.1 53.2 76.4 54 77.5 54.2L79.5 54.7L76.7 55.5L73.9 56.2L72 54.5C69.5 52.2 69.5 51 72 51H73.9L74.7 52.4ZM254.4 69.3L256.2 70.6L255.8 73L255.5 75.5L238 88.8C228.4 96.1 218.9 103.3 216.8 104.6L213.2 107.1L209.1 104.2L205.1 101.3L207.3 99.3C210.2 96.7 244.9 70.7 247.5 69.2C250.1 67.7 252.2 67.7 254.4 69.3ZM53.7 72.5C56 73.9 58 75.3 58 75.7C58 76 56.9 75.5 55.5 74.6L52.9 72.9L52.1 73.5C51.6 73.8 49.9 73.5 48.4 72.9L45.6 71.9L47 71C49 69.7 48.7 69.7 53.7 72.5ZM156 76C158.1 77.1 160.2 78.4 160.5 79C160.9 79.6 159.7 79.2 157.8 78L154.5 76L149 75.9H143.5L145.5 75C148.8 73.6 151.8 73.9 156 76ZM181.1 92.2C183.7 94 193 100.6 201.8 106.8C210.5 113 219.4 119.6 221.4 121.4L225 124.8V132.5L218.5 138.7C212.8 144.1 193.9 158.1 181.1 166.4C172.1 172.2 178.5 166.9 192.7 156.8C200.9 151 210.7 143.6 214.5 140.3L221.5 134.4L222.8 131.7L224.1 129L222.8 126.3L221.5 123.6L215.4 118.6C212 115.8 200.7 107.5 190.1 100.1C179.6 92.8 171 86.6 171 86.4C171 85.7 176.2 88.7 181.1 92.2ZM154.5 89L155.1 90L153.8 91.7L152.5 93.5L149.3 93.8L146 94.1V89.2L147.3 88.7C147.9 88.4 149.7 88.1 151.2 88.1L153.9 88L154.5 89ZM93.3 99.9C93.7 100 94 100.4 94 100.9C94 102.3 91.2 103 88 102.3L85 101.7V99.1L88.8 99.5C90.8 99.7 92.8 99.9 93.3 99.9ZM212.1 125.8C211.5 126 210.3 125.4 209.4 124.6C207.7 122.8 206.4 122.6 205.6 123.9L205 124.8L206.4 125.9L207.7 127L207.2 129.5L206.8 131.9L204.9 132.5L203 133.1L203.5 134.1C203.9 134.6 204.8 135 205.7 135H207.3L211.2 130.9C215.7 126.2 217.4 126 213.2 130.7C210.9 133.3 188 149.6 188 148.6C188 148.4 191.4 145.7 195.6 142.5L203.1 136.7L202 135.6L200.9 134.5L196.2 137C193.6 138.4 189.5 140.9 187 142.6C184.5 144.3 181.8 146 181 146.5L179.5 147.3L180.5 146.3C183.1 143.9 191 137.9 195.5 135.1L200.4 132H196.9C195.1 132 192.6 131.7 191.4 131.4L189.3 130.8L189.8 128.5L190.2 126.1L195.7 125.8L201.3 125.5L196.4 122.3C193.7 120.5 190.2 117.9 188.5 116.5L185.5 113.9L190.2 116.4C192.8 117.8 196.7 120.1 199 121.6C201.2 123.1 203.3 124 203.6 123.7C204.4 122.9 200.1 119.1 192.3 113.8C180.7 105.9 185.9 108 199.6 116.8L213.1 125.5L212.1 125.8ZM211 128C211 128.5 210.6 129 210 129C209.5 129 209 128.5 209 128C209 127.4 209.5 127 210 127C210.6 127 211 127.4 211 128ZM220.5 130C220.2 130.5 219.3 131 218.7 131H217.5L219 130C220.9 128.8 221.3 128.8 220.5 130ZM229 132.1C227.9 135.8 226.6 137.4 222.6 140.2L219.5 142.3L223.2 138.4C225.2 136.3 227.3 133.3 227.9 131.7C229.3 128 230.1 128.3 229 132.1ZM217 131.4C217 131.6 216.3 132.1 215.4 132.4L213.9 133L214.5 132C215.1 131 217 130.6 217 131.4ZM221 151.8C221 152.2 218.5 153.8 215.3 155.4C212.2 156.9 206.4 160.3 202.3 163C191.7 170 194.3 167.4 206.7 158.6L217.4 151H219.2C220.2 151 221 151.4 221 151.8ZM164 157.4C164 157.6 163.2 158.4 162.3 159.1L160.5 160.5L161.9 158.7C163.2 157.1 164 156.6 164 157.4ZM221.4 159.6C221.7 160.5 222 161.8 222 162.6V164.1L221.1 163.6L220.2 163L218.1 166.4C216.9 168.2 216 170.5 216 171.4C216 173.1 215.1 173.4 212.6 172.4L211 171.8L211.6 170.9C212.3 169.7 211.4 169.8 209 171C207.9 171.5 206.1 172.4 205 173C202.3 174.3 202 174.3 202 172.4V170.8L200.5 172C199.6 172.7 198.7 173.1 198.4 172.8C197.8 172.2 205.4 165.7 212 161.2L216.5 158.1L218.6 158H220.8L221.4 159.6ZM152.3 164H155.6L156.9 162.7C157.6 162.1 156.9 163.4 155.4 165.7L152.5 169.9L149.5 170L146.5 170.1L148.8 171.2L151 172.3L153.7 171.1L156.5 169.8L154.6 171.9L152.7 174H147.8L144.7 171.4C143 170 140.8 167.8 139.8 166.5L138 164.2L141.3 164.4C145.5 164.8 147 164.2 147 162.1L147.1 160.5L148.1 162.2L149.1 164H152.3ZM172.5 172.5C167.7 176.6 157.1 183 155.1 183C154.3 183 156.3 181.7 159.6 180C162.8 178.4 167.8 175.2 170.5 173.1C176.6 168.2 178 167.8 172.5 172.5ZM144 182.3L145.5 182.8L143.9 182.9C143.1 183 141.5 182.3 140.4 181.4L138.5 179.9L140.5 180.8C141.6 181.3 143.2 182 144 182.3ZM151.8 183.7C150.8 183.9 149 183.9 147.8 183.7L145.5 183.3H149.5L153.5 183.2L151.8 183.7ZM211 193L214.5 196.1L212.5 195.1C211.4 194.6 208.5 192.2 206 190L201.5 185.8L204.5 187.8C206.2 189 209.1 191.3 211 193ZM173.8 204.5C181.3 210.5 183.8 213.3 177.3 208.4C169.7 202.8 163 196.8 163 195.7V194.5L164.8 196.6C165.7 197.7 169.8 201.3 173.8 204.5ZM252 222.1C252 222.6 251.4 223 250.6 223C249.8 223 249 223.3 248.7 223.7C248.5 224.2 248.4 224 248.6 223.4C248.7 222.8 248.4 221.8 247.8 221.2L246.8 220.2L249.4 220.7C250.8 221 252 221.6 252 222.1ZM255.1 221.7L256.5 223.5L254.8 222.1C253.1 220.8 252.6 220 253.4 220C253.6 220 254.4 220.8 255.1 221.7ZM224 241L225.4 241.9L226.1 240.8L226.8 239.6L228.4 240.9L230 242.2L229.4 243.1C229.1 243.6 227.5 244 225.9 244H222.9L223.5 243.1L224 242.1L222.3 241.1C221.3 240.5 221 240.1 221.5 240C222.1 240 223.2 240.4 224 241ZM195.5 72.5C191.1 75.4 186.2 79 184.5 80.5L181.5 83.1L190.8 78.3L200.1 73.5L202.2 70.2C203.3 68.5 204 67 203.8 67.1C203.7 67.1 199.9 69.5 195.5 72.5ZM141 165.8C141 166.8 143.1 169 144.2 169C145.8 169 145 167.1 143 166L141 164.9V165.8Z" fill="#49D2DC"/>
<path d="M0 150V300H300V-4.47035e-06H0V150ZM80.1 51.9C82.5 53.5 93 61 103.5 68.7L122.4 82.7L126.4 79.9C130.8 76.6 132 76.3 132 78.5C132 80.6 133.5 80.4 137.9 77.4L141.8 74.9L147.1 74.3L152.5 73.8L156.4 75.4C158.6 76.3 164.2 79.9 168.9 83.4C173.6 86.8 179.4 91 181.6 92.6C207.2 110.6 218.3 118.6 221.4 121.4L225 124.8V132.5L218.5 138.7C212.8 144.1 193.9 158.1 181.1 166.4C172.7 171.8 178.1 167.1 189.7 159C203.1 149.6 217.3 138.4 220.9 134.6L223.3 132V125.6L218.2 120.9C215.4 118.3 211.1 114.9 208.8 113.3C206.4 111.7 196 104.4 185.5 97C175.1 89.6 164.1 82.1 161.1 80.3L155.6 77H153.4C152.1 77 150.9 77.4 150.6 77.9L150 78.8L155.8 84.3C162.6 91 185.7 108 201.7 118.2L213.2 125.4L212.1 125.8C211.5 126 210.3 125.4 209.4 124.6C207.7 122.8 206.4 122.6 205.6 123.9L205 124.8L206.4 125.9L207.7 127L207.2 129.5L206.8 131.9L204.9 132.5L203 133.1L203.5 134.1C203.9 134.6 204.8 135 205.7 135H207.3L211.2 130.9C215.7 126.2 217.4 126 213.2 130.7C210.9 133.3 188 149.6 188 148.6C188 148.4 191.4 145.7 195.6 142.5L203.1 136.7L202 135.6L200.9 134.5L196.2 137C193.6 138.4 189.5 140.9 187 142.6C181.2 146.5 180 147.2 180 146.7C180 146.1 192.7 136.8 197 134.1L200.5 132H197C195.1 132 192.6 131.7 191.4 131.4L189.3 130.8L189.8 128.5L190.2 126.1L195.7 125.8L201.1 125.5L194.8 121.4C184.8 114.9 163.9 101.5 159.4 98.7C157.1 97.3 154.9 96.4 154.6 96.7C154.3 97.1 154 99.4 154 101.9C154 104.4 153.7 110.2 153.3 114.7L152.7 123H146L145.9 120.2C145.8 118.7 145.6 113.1 145.5 107.7C145.3 102.2 144.9 97.6 144.6 97.3C144.4 97 141.2 99.1 137.5 101.9C133.9 104.7 130 107.4 129 108C126.1 109.6 126.5 110.2 132 113.3C138.5 117 143 120.8 144.1 123.7L145 126H154L158.1 121.6L162.2 117.1L165.5 116C167.3 115.4 169.6 114 170.5 113C172.5 110.8 174.5 110.4 175.5 112L176.2 113.1L175.1 114.3C173.4 116.5 160.2 125.2 158.3 125.4L156.5 125.7L156.2 128.8L155.9 131.8L157.7 132.4C158.7 132.7 161.3 134.5 163.5 136.4L167.5 139.8L166.8 140.5L166.1 141.2L164.3 140.5C163.3 140 162.3 139.6 162 139.6C160.6 139.3 157.2 136.3 156.2 134.4L155.1 132.3L152 131.7L149 131L146.7 132.1C145.5 132.6 143.5 134.6 142.3 136.5L140 140L135.3 142.5C132.6 143.9 129.6 145.7 128.5 146.5L126.4 148L124.1 146.4L121.9 144.8L124.2 142.3C125.5 140.9 128.5 138.4 130.9 136.9L135.4 134H107.6L109 135.3C112 138 126.7 149.8 132.2 153.9L138 158.2L137.4 159.2L136.8 160.2L134.6 158.2C133.5 157.1 130.3 155 127.5 153.5C124.8 152 121.2 149.9 119.5 148.8L116.5 146.8L118.8 148.9L121.2 150.9L120.5 151.9L119.9 152.9L125.9 157.2C129.2 159.6 132.2 162.1 132.5 162.9L133 164.2L129.8 162.2C128 161.2 118.6 155.2 109 149L91.5 137.8L91.7 136.9C92.1 135.7 90.3 135.7 89.8 136.9C89.7 137.3 88.4 138.1 87.1 138.5L84.7 139.2L85.3 137.6L85.9 136H85C83 136 84.1 138.7 87.3 141.7C89 143.4 94.8 147.8 100 151.5C109.1 158 126.9 171.5 131.4 175.3C134.3 177.8 112.3 162.9 103.3 156.3C96 151 72.1 135 71.4 135C71.2 135 71 135.6 71 136.3C71 137.1 70.1 138.5 69.1 139.4L67.2 141.1L66.6 138.2L65.9 135.3L67 130.5C68.8 122.3 73.4 116.8 83.9 110.3C87.5 108 88.5 107.5 97.4 103.7L102.2 101.6L106.1 97.8C108.3 95.7 110.4 94 110.9 94C111.4 94 112.3 93.3 113 92.5L114.2 91H111.9L112.4 90.2L112.9 89.4L90.5 72.6L68.2 55.9L67.5 54.2L66.9 52.5L69 50.8L71.2 49H75.6L80.1 51.9ZM230.1 50L232 51.1V55.7L209.9 72.1C197.8 81.1 187.2 88.4 186.5 88.4C185.2 88.3 178 82.9 178 82C178 81.5 184.4 76.9 212.3 56.8L223.2 49H225.7C227 49 229 49.5 230.1 50ZM51.3 69.2C52.5 69.8 59.6 74.9 67 80.4C74.4 86 83.5 92.7 87.3 95.4C91 98.1 94 100.6 94 101C94 101.4 93.3 102.3 92.5 103L91 104.2L89.5 103.6L87.9 103L88.5 104C88.8 104.6 88.8 105.5 88.5 106L87.9 107L85.7 105.9C84.5 105.2 80.3 102.2 76.3 99.1C72.4 96 65.9 91.2 61.9 88.5C57.9 85.7 52 81.3 48.8 78.7L43 73.9V72.5C43 71.1 46.7 68 48.3 68C48.8 68 50.1 68.5 51.3 69.2ZM254.4 69.3L256.2 70.6L255.8 73L255.5 75.5L238 88.8C228.4 96.1 218.9 103.3 216.8 104.6L213.2 107.1L209.1 104.2L205.1 101.3L207.3 99.3C210.2 96.7 244.9 70.7 247.5 69.2C250.1 67.7 252.2 67.7 254.4 69.3ZM170 128C170 128.5 169.4 129 168.8 129.1L167.5 129.2L168.8 129.7C169.4 129.9 170 130.6 170 131.1V132.1L165.9 131.8C161.6 131.6 160.5 130.8 161.4 128.5L161.9 127H170V128ZM211 128C211 128.5 210.6 129 210 129C209.5 129 209 128.5 209 128C209 127.4 209.5 127 210 127C210.6 127 211 127.4 211 128ZM220.5 130C220.2 130.5 219.3 131 218.7 131H217.5L219 130C220.9 128.8 221.3 128.8 220.5 130ZM229 132.1C227.9 135.8 226.6 137.4 222.6 140.2L219.5 142.3L223.2 138.4C225.2 136.3 227.3 133.3 227.9 131.7C229.3 128 230.1 128.3 229 132.1ZM217 131.4C217 131.6 216.3 132.1 215.4 132.4L213.9 133L214.5 132C215.1 131 217 130.6 217 131.4ZM151.4 136.6L153 137.2L152.9 141.9L152.8 146.5L152 144L151.2 141.5L151.1 146.9L151 152.2L149.5 151L147.9 149.7L148.2 156.6L148.5 163.5L151.8 163.8L155.1 164.1L156.7 162.8L158.3 161.5L155.4 165.7L152.5 169.9L149.5 170L146.5 170.1L148.8 171.2L151 172.3L153.7 171.1L156.5 169.8L154.6 171.9L152.7 174H147.8L144.7 171.4C143 170 140.8 167.8 139.8 166.5L138 164.2L141.3 164.4C143 164.6 145.1 164.5 145.8 164.2L147 163.8V143.1L146 142.5L144.9 141.8L145.6 139.7C146.6 136.4 148.4 135.5 151.4 136.6ZM171 143.1C172.7 146.1 171.6 146.5 169.6 143.5L168 141H168.9C169.5 141 170.4 141.9 171 143.1ZM87.6 155.1C91.1 157.3 94.5 159.9 95.2 160.8L96.5 162.4L92 159.3C85.6 155 81.5 153 78.8 153H76.5L78 152C80.3 150.5 80.9 150.7 87.6 155.1ZM221 151.8C221 152.2 218.5 153.8 215.3 155.4C212.2 156.9 206.4 160.3 202.3 163C191.7 170 194.3 167.4 206.7 158.6L217.4 151H219.2C220.2 151 221 151.4 221 151.8ZM131.9 158C136.5 161.6 137.8 163 136.6 163C136.4 163 133.6 161 130.4 158.5C127.3 156 125.1 154 125.7 154C126.3 154 129.1 155.8 131.9 158ZM164 157.4C164 157.6 163.2 158.4 162.3 159.1L160.5 160.5L161.9 158.7C163.2 157.1 164 156.6 164 157.4ZM221.4 159.6C221.7 160.5 222 161.8 222 162.6V164.1L221.1 163.6L220.2 163L218.1 166.4C216.9 168.2 216 170.5 216 171.4C216 173.1 215.1 173.4 212.6 172.4L211 171.8L211.6 170.9C212.3 169.7 211.4 169.8 209 171C207.9 171.5 206.1 172.4 205 173C202.3 174.3 202 174.3 202 172.4V170.8L200.5 172C199.6 172.7 198.7 173.1 198.4 172.8C197.8 172.2 205.4 165.7 212 161.2L216.5 158.1L218.6 158H220.8L221.4 159.6ZM88 170L89.5 171H88.5C88 171 86.8 170.5 86 170L84.5 169H85.5C86.1 169 87.2 169.5 88 170ZM172.5 172.5C167.7 176.6 157.1 183 155.1 183C154.3 183 156.3 181.7 159.6 180C162.8 178.4 167.8 175.2 170.5 173.1C176.6 168.2 178 167.8 172.5 172.5ZM144 182.3L145.5 182.8L143.9 182.9C143.1 183 141.5 182.3 140.4 181.4L138.5 179.9L140.5 180.8C141.6 181.3 143.2 182 144 182.3ZM102.3 185.4L97.5 189.8L96.5 189.2L95.6 188.6L97 188.2C97.8 187.9 98.8 187.3 99.1 186.8C99.7 185.9 106.2 181 106.8 181C107 181 105 183 102.3 185.4ZM151.8 183.7C150.8 183.9 149 183.9 147.8 183.7L145.5 183.3H149.5L153.5 183.2L151.8 183.7ZM211 193L214.5 196.1L212.5 195.1C211.4 194.6 208.5 192.2 206 190L201.5 185.8L204.5 187.8C206.2 189 209.1 191.3 211 193ZM91.1 192.8C89.2 194.3 86.3 196.4 84.6 197.4L81.5 199.3L83.5 197.2C86 194.6 92.2 190.2 93.5 190.1C94.1 190.1 93 191.3 91.1 192.8ZM83.9 192.3C82.4 193 79.3 195.2 76.9 197.2C74.5 199.2 69.9 203 66.7 205.6C61.1 210 59.6 212.3 63.8 210.1C66 208.9 67.1 209.6 66.3 211.6C65.3 214.3 65.2 214.4 82.6 200.9C90.4 194.9 92.2 194 88.6 197.9C86.9 199.6 82.2 203.4 78.1 206.2C73.9 209.1 70.3 211.6 70 211.9C68.9 213.2 53.1 224.9 51.1 225.9L48.9 227.1L47 226.5C45.9 226.1 44.5 225 43.9 223.9L42.9 221.9L45.2 219C46.5 217.4 47.8 216.1 48.2 216.1C49 216 52.1 213.7 71.9 198.8L82.3 191H84.4L86.5 191.1L83.9 192.3ZM137.2 197.3C135.1 199.5 130.8 203.1 117.7 213.5C114.5 216.1 111.6 217.9 111.3 217.7C111 217.4 113.4 215.2 116.5 212.8C119.6 210.4 125.9 205.5 130.3 201.8C138.9 194.7 140.8 193.5 137.2 197.3ZM173.8 204.5C181.3 210.5 183.8 213.3 177.3 208.4C169.7 202.8 163 196.8 163 195.7V194.5L164.8 196.6C165.7 197.7 169.8 201.3 173.8 204.5ZM105 217.4C105 217.6 103.8 218.5 102.3 219.4L99.5 221.1L101.9 219.1C104.2 217 105 216.6 105 217.4ZM252 222.1C252 222.6 251.4 223 250.6 223C249.8 223 249 223.3 248.7 223.7C248.5 224.2 248.4 224 248.6 223.4C248.7 222.8 248.4 221.8 247.8 221.2L246.8 220.2L249.4 220.7C250.8 221 252 221.6 252 222.1ZM255.1 221.7L256.5 223.5L254.8 222.1C253.1 220.8 252.6 220 253.4 220C253.6 220 254.4 220.8 255.1 221.7ZM89.7 225.7C89.7 226.7 89.2 228.2 88.5 229C87.8 229.8 87.3 231.3 87.3 232.3V234L89.4 233.4C90.6 233 92.2 232.5 93 232.3L94.5 231.8L92.5 233.1C91.4 233.7 88.9 235.8 87 237.7C85.1 239.6 81.6 242.3 79.2 243.7L74.9 246.3L71.7 245.3L68.5 244.4L68.2 241.9L67.9 239.4L77.4 232.6L87 225.9L88 226.5L89 227.1L88.9 226.3C88.7 225.2 88.9 224 89.3 224C89.5 224 89.7 224.8 89.7 225.7ZM224 241L225.4 241.9L226.1 240.8L226.8 239.6L228.4 240.9L230 242.2L229.4 243.1C229.1 243.6 227.5 244 225.9 244H222.9L223.5 243.1L224 242.1L222.3 241.1C221.3 240.5 221 240.1 221.5 240C222.1 240 223.2 240.4 224 241ZM90 64.7C90 65.1 91.2 66.5 92.8 67.8L95.5 70.1L92.3 68.5C88.3 66.6 87.4 66.6 89 68.5C89.7 69.3 91 70 92 70C92.9 70 95.9 71.4 98.6 73.1C101.3 74.9 105.9 77.8 108.9 79.7C111.8 81.6 115.1 83.3 116.2 83.5L118.2 83.9L116.9 82.4C115.1 80.3 92.3 64 91 64C90.5 64 90 64.3 90 64.7ZM99 76.4C99 76.6 99.8 77.4 100.8 78.1L102.5 79.5L101.1 77.7C99.8 76.1 99 75.6 99 76.4ZM168 99.8C168 101.3 173.4 105.7 182.2 111.4C186.9 114.5 191.1 117 191.4 117C191.8 117 194.5 118.6 197.5 120.7C200.6 122.7 203.3 124 203.6 123.7C204.7 122.7 198.9 118.2 178.7 104.4C171.4 99.3 168 97.9 168 99.8ZM113.9 117.7L112.5 119.4L113.6 118.7L114.8 118L115.4 119.6L116 121.2L114.7 120.7L113.3 120.2L110.6 121.9L107.9 123.7L109.5 125L111 126.2V123.8L112.3 124.8L113.6 125.9L126.1 126.2L138.5 126.5L138.8 128.7L139.1 130.8L136.8 131.3L134.5 131.7L138.7 131.9L142.9 132L143.4 131.2C143.7 130.7 143.6 129.4 143.3 128.2L142.8 126H138.3L135.7 124C134.3 122.9 132.7 122 132.1 122C131.5 122 128.8 120.6 126.2 119L121.3 116H115.2L113.9 117.7ZM195.5 72.5C191.1 75.4 186.2 79 184.5 80.5L181.5 83.1L190.8 78.3L200.1 73.5L202.2 70.2C203.3 68.5 204 67 203.8 67.1C203.7 67.1 199.9 69.5 195.5 72.5ZM65 85.8V87.6L67.8 90.2C72 94.2 75.1 95.8 79.8 96.4L84.1 97L83.5 96C82 93.6 67.6 84 65.5 84C65.2 84 65 84.8 65 85.8ZM141 165.8C141 166.8 143.1 169 144.2 169C145.8 169 145 167.1 143 166L141 164.9V165.8Z" fill="#D734C9"/>
<path d="M0 150V300H300V-4.47035e-06H0V150ZM80.1 51.9C82.5 53.5 93 61 103.5 68.7L122.4 82.7L126.4 79.9C130.8 76.6 132 76.3 132 78.5C132 80.7 133.5 80.4 138.2 77.3L142.3 74.5H155.9L155.2 73.8C154.8 73.4 153.2 72.4 151.5 71.6L148.5 70H156.5L160.8 72C163.1 73 167.6 75.7 170.7 78C173.8 80.2 176.6 82 176.9 82C177.3 82 187.4 74.8 199.5 66C211.6 57.2 222.6 49.7 223.9 49.3L226.3 48.7L228.9 49.6L231.5 50.5L231.8 53.1L232.1 55.7L209.5 72.5C197.1 81.7 187 89.4 187 89.5C187 89.9 203.8 101 204.4 101C204.6 101 214.4 93.8 226.1 85C237.8 76.1 248.4 68.7 249.6 68.4L251.8 67.8L253.9 69L256 70.1V74.8L253.2 77.2C250.4 79.4 217.2 104.5 214.7 106.3L213.5 107.1L217 109.8C218.9 111.3 223 115 226.1 118.1L231.7 123.6L233.1 129.1L234.5 134.5L234.4 149.5L234.3 164.5L233.1 170.5L231.8 176.5L226.9 181.3C224.2 183.9 220.6 186.9 218.9 187.9L215.9 189.7L235.4 204.3C246.1 212.4 255.4 219.8 255.9 220.8L256.9 222.7L255.4 224.8L253.9 227H250V224.5L249.1 225.8L248.3 227.1L231.9 214.7C214.4 201.5 207.8 197 205.8 197C205.1 197 203.2 195.6 201.4 193.9L198.2 190.8L189.6 196.7L181 202.5L183.1 204.2C185.9 206.6 186 206.6 191.4 202.4C197.6 197.7 198.4 198.6 192.5 203.7L188 207.7L192 210.4C194.1 211.8 203.8 218.8 213.4 226L230.9 238.9L232.1 241.1L233.3 243.3L231.4 244.7C230.3 245.5 228.5 246.3 227.2 246.7L224.9 247.2L219.7 243.7C213.6 239.6 181.5 217.3 171.7 210.3C167.9 207.7 163.5 204 161.9 202.2L159 198.9V197.2C159 194.3 163.5 189 169.2 185.2C172.1 183.3 175.2 181 176 180C178.2 177.6 187.6 171 188.9 171C189.5 171 190 170.6 190 170.1C190 169.6 190.8 168.9 191.8 168.6C192.8 168.3 195.2 166.5 197.1 164.7C199 163 202.1 160.2 204 158.7L207.5 155.9L205 157.1C201.5 158.7 182.6 171.8 169.4 181.7C163.2 186.3 156.3 190.9 153.9 191.9L149.6 193.9L146.6 191.7L143.5 189.5L145.3 189.2C146.2 189 147 188.7 147 188.4C147 187.6 143.2 184.2 141.1 183C139.9 182.4 139 181.5 139 181.1V180.2L141 180.7L143 181.2V179.9C143 179.1 142.1 177.2 141 175.5L139 172.5L140.4 172L141.8 171.5L140 167.7C139 165.7 138.5 164.2 139 164.5C139.5 164.8 140.2 164.5 140.6 163.9L141.2 162.8L144.1 163.4L147 163.9V143.4L146 142.4L145.1 141.5L145.6 139.3C146.3 136.8 148.5 135.7 151.1 136.5L153 137.1L152.9 141.8L152.8 146.5L152 144L151.2 141.5L151.1 146.9L151 152.2L149.5 151L148 149.8V161H149.5C150.3 161 151 161.4 151 162V163H155.1L162.8 157.7C167 154.7 172.1 151.5 174.2 150.6C178.1 148.7 181.8 145.2 181 144.1C180.7 143.8 181.3 143.5 182.3 143.5C183.3 143.5 184.4 142.9 184.9 142.2C185.4 141.4 185.9 141 186.1 141.2C186.9 141.8 195 133.8 194.5 132.9C194.2 132.5 192.6 131.9 191 131.5C189.3 131.1 188 130.5 188 130C188 129.5 187.7 128.5 187.4 127.6L186.8 126H193.6L195.4 124.7L197.3 123.3L193.4 120.6C189.4 117.8 176.1 109.2 162.9 100.9C158.7 98.3 154.9 96.4 154.6 96.7C154.3 97.1 154 99.4 154 101.9C154 104.4 153.7 110.2 153.3 114.7L152.7 123H146L145.9 120.2C145.8 118.7 145.6 113.1 145.5 107.7C145.3 102.2 144.9 97.6 144.6 97.3C144.4 97 141.2 99.1 137.5 101.9C133.9 104.7 130 107.4 129 108C126.1 109.6 126.5 110.2 132 113.3C138.5 117 143 120.8 144.1 123.7L145 126H154L158.1 121.6L162.2 117.1L165.5 116C167.3 115.4 169.6 114 170.5 113C172.5 110.8 174.5 110.4 175.5 112L176.2 113.1L175.1 114.3C173.4 116.5 160.2 125.2 158.3 125.4L156.5 125.7L156.2 128.8L155.9 131.8L157.7 132.4C158.7 132.7 161.3 134.5 163.5 136.4L167.5 139.8L166.8 140.5L166.1 141.2L164.3 140.5C163.3 140 162.3 139.6 162 139.6C160.6 139.3 157.2 136.3 156.2 134.4L155.1 132.3L152 131.7L149 131L146.7 132.1C145.5 132.6 143.5 134.6 142.3 136.5L140 140L135.3 142.5C132.6 143.9 129.6 145.7 128.5 146.5L126.4 148L124.1 146.4L121.9 144.8L124.2 142.3C125.5 140.9 128.5 138.4 130.9 136.9L135.4 134H107.6L109 135.3C112 138 126.7 149.8 132.2 153.9L138 158.2L137.4 159.2L136.8 160.2L134.6 158.2C133.5 157.1 130.3 155 127.5 153.5C124.8 152 121.2 149.9 119.5 148.8L116.5 146.8L118.8 148.9L121.2 150.9L120.5 151.9L119.9 152.9L125.9 157.2C129.2 159.6 132.2 162.1 132.5 162.9L133 164.2L129.8 162.2C128 161.2 118.6 155.2 109 149L91.5 137.8L91.7 136.9C92.1 135.7 90.3 135.7 89.8 136.9C89.7 137.3 88.4 138.1 87.1 138.5L84.7 139.2L85.3 137.6L85.9 136H85C83 136 84.1 138.7 87.3 141.7C89 143.4 94.8 147.8 100 151.5C109.1 158 126.9 171.5 131.4 175.3C134.3 177.8 112.3 162.9 103.3 156.3C96 151 72.1 135 71.4 135C71.2 135 71 135.6 71 136.3C71 137.1 70.1 138.5 69.1 139.4L67.2 141.1L66.6 138.2L65.9 135.3L67 130.5C68.8 122.3 73.4 116.8 83.9 110.3C87.5 108 88.5 107.5 97.4 103.7L102.2 101.6L106.1 97.8C108.3 95.7 110.4 94 110.9 94C111.4 94 112.3 93.3 113 92.5L114.2 91H111.9L112.4 90.2L112.9 89.4L90.5 72.6L68.2 55.9L67.5 54.2L66.9 52.5L69 50.8L71.2 49H75.6L80.1 51.9ZM51.3 69.2C52.5 69.8 59.6 74.9 67 80.4C74.4 86 83.5 92.7 87.3 95.4C91 98.1 94 100.6 94 101C94 101.4 93.3 102.3 92.5 103L91 104.2L89.5 103.6L87.9 103L88.5 104C88.8 104.6 88.8 105.5 88.5 106L87.9 107L85.7 105.9C84.5 105.2 80.3 102.2 76.3 99.1C72.4 96 65.9 91.2 61.9 88.5C57.9 85.7 52 81.3 48.8 78.7L43 73.9V72.5C43 71.1 46.7 68 48.3 68C48.8 68 50.1 68.5 51.3 69.2ZM170 128C170 128.5 169.4 129 168.8 129.1L167.5 129.2L168.8 129.7C169.4 129.9 170 130.6 170 131.1V132.1L165.9 131.8C161.6 131.6 160.5 130.8 161.4 128.5L161.9 127H170V128ZM171 143.1C172.7 146.1 171.6 146.5 169.6 143.5L168 141H168.9C169.5 141 170.4 141.9 171 143.1ZM87.6 155.1C91.1 157.3 94.5 159.9 95.2 160.8L96.5 162.4L92 159.3C85.6 155 81.5 153 78.8 153H76.5L78 152C80.3 150.5 80.9 150.7 87.6 155.1ZM131.9 158C136.5 161.6 137.8 163 136.6 163C136.4 163 133.6 161 130.4 158.5C127.3 156 125.1 154 125.7 154C126.3 154 129.1 155.8 131.9 158ZM88 170L89.5 171H88.5C88 171 86.8 170.5 86 170L84.5 169H85.5C86.1 169 87.2 169.5 88 170ZM102.3 185.4L97.5 189.8L96.5 189.2L95.6 188.6L97 188.2C97.8 187.9 98.8 187.3 99.1 186.8C99.7 185.9 106.2 181 106.8 181C107 181 105 183 102.3 185.4ZM91.1 192.8C89.2 194.3 86.3 196.4 84.6 197.4L81.5 199.3L83.5 197.2C86 194.6 92.2 190.2 93.5 190.1C94.1 190.1 93 191.3 91.1 192.8ZM83.9 192.3C82.4 193 79.3 195.2 76.9 197.2C74.5 199.2 69.9 203 66.7 205.6C61.1 210 59.6 212.3 63.8 210.1C66 208.9 67.1 209.6 66.3 211.6C65.3 214.3 65.2 214.4 82.6 200.9C90.4 194.9 92.2 194 88.6 197.9C86.9 199.6 82.2 203.4 78.1 206.2C73.9 209.1 70.3 211.6 70 211.9C68.9 213.2 53.1 224.9 51.1 225.9L48.9 227.1L47 226.5C45.9 226.1 44.5 225 43.9 223.9L42.9 221.9L45.2 219C46.5 217.4 47.8 216.1 48.2 216.1C49 216 52.1 213.7 71.9 198.8L82.3 191H84.4L86.5 191.1L83.9 192.3ZM137.2 197.3C135.1 199.5 130.8 203.1 117.7 213.5C114.5 216.1 111.6 217.9 111.3 217.7C111 217.4 113.4 215.2 116.5 212.8C119.6 210.4 125.9 205.5 130.3 201.8C138.9 194.7 140.8 193.5 137.2 197.3ZM105 217.4C105 217.6 103.8 218.5 102.3 219.4L99.5 221.1L101.9 219.1C104.2 217 105 216.6 105 217.4ZM89.7 225.7C89.7 226.7 89.2 228.2 88.5 229C87.8 229.8 87.3 231.3 87.3 232.3V234L89.4 233.4C90.6 233 92.2 232.5 93 232.3L94.5 231.8L92.5 233.1C91.4 233.7 88.9 235.8 87 237.7C85.1 239.6 81.6 242.3 79.2 243.7L74.9 246.3L71.7 245.3L68.5 244.4L68.2 241.9L67.9 239.4L77.4 232.6L87 225.9L88 226.5L89 227.1L88.9 226.3C88.7 225.2 88.9 224 89.3 224C89.5 224 89.7 224.8 89.7 225.7ZM90 64.7C90 65.1 91.2 66.5 92.8 67.8L95.5 70.1L92.3 68.5C88.3 66.6 87.4 66.6 89 68.5C89.7 69.3 91 70 92 70C92.9 70 95.9 71.4 98.6 73.1C101.3 74.9 105.9 77.8 108.9 79.7C111.8 81.6 115.1 83.3 116.2 83.5L118.2 83.9L116.9 82.4C115.1 80.3 92.3 64 91 64C90.5 64 90 64.3 90 64.7ZM99 76.4C99 76.6 99.8 77.4 100.8 78.1L102.5 79.5L101.1 77.7C99.8 76.1 99 75.6 99 76.4ZM150.6 77.9L150 78.8L155.8 84.3C161.5 90 186.7 108.9 188.4 109C188.9 109 188.3 107.8 186.9 106.4L184.5 103.7L186.8 104.9L189 106.1V105.1C189 104.6 186.3 101.6 183.1 98.4C179.8 95.2 177.4 92.2 177.6 91.8L178.1 91L176.7 91.6L175.2 92.1L174.4 90.9L173.7 89.7L175.1 90.5L176.5 91.3L175.5 90.3C175 89.8 172.8 88.2 170.8 86.7L167.1 84L165.8 84.5L164.4 85.1L161.7 83C160.2 81.8 159.2 80.5 159.5 80.1L159.9 79.3L157.4 78.1C154.4 76.8 151.3 76.7 150.6 77.9ZM168 99.8C168 101.1 173 105.4 179.8 110L186.2 114.2L184.3 111.4L182.5 108.6L184.5 109.4L186.5 110.1L185.5 109.2C185 108.7 181.4 106.2 177.7 103.6C171.2 99.3 168 98 168 99.8ZM113.9 117.7L112.5 119.4L113.6 118.7L114.8 118L115.4 119.6L116 121.2L114.7 120.7L113.3 120.2L110.6 121.9L107.9 123.7L109.5 125L111 126.2V123.8L112.3 124.8L113.6 125.9L126.1 126.2L138.5 126.5L138.8 128.7L139.1 130.8L136.8 131.3L134.5 131.7L138.7 131.9L142.9 132L143.4 131.2C143.7 130.7 143.6 129.4 143.3 128.2L142.8 126H138.3L135.7 124C134.3 122.9 132.7 122 132.1 122C131.5 122 128.8 120.6 126.2 119L121.3 116H115.2L113.9 117.7ZM221.5 156.3L220.9 158.5L222.5 162L224.1 165.5L223.5 161.4L222.9 157.2L224.1 156.5L225.3 155.7L224.8 163.4L224.3 171L222.4 173.1C221.4 174.2 218 176.8 214.8 178.7C211.6 180.7 209 182.6 209 183C209 183.4 210.2 184.5 211.6 185.5L214.2 187.2L218.1 184.4C220.3 182.9 223.2 180.3 224.6 178.7L227 175.8V167.2C227 162.4 226.7 157.5 226.4 156.2L225.8 154H222L221.5 156.3ZM177.9 183.8C174.4 186.5 170.5 189.2 169.3 189.9L167 191.1V193C167 194 167.4 195.2 168 195.5L168.9 196.1L169.6 193.7L170.2 191.2L175.3 187.8C178.2 185.9 181.7 183.6 183.3 182.6C185.9 181 186.9 179 185.1 179C184.7 179 181.4 181.2 177.9 183.8ZM191.4 191.1L189.5 193.3L192.8 191.6C196.2 189.8 196.8 189 194.7 189C193.9 189 192.5 190 191.4 191.1ZM197.6 221.4C197.9 222.2 198.9 223.1 199.8 223.5L201.4 224.1L199.5 222C197.4 219.6 196.9 219.5 197.6 221.4ZM65 85.8V87.6L67.8 90.2C72 94.2 75.1 95.8 79.8 96.4L84.1 97L83.5 96C82 93.6 67.6 84 65.5 84C65.2 84 65 84.8 65 85.8Z" fill="#5A64F1"/>
<path d="M0 150V300H300V-4.47035e-06H0V150ZM80.1 51.9C82.5 53.5 93 61 103.4 68.7L122.3 82.6L131.2 76.6L140.1 70.5L147.6 70.2L155.1 69.8L159.4 71.4C161.7 72.3 166.5 75.1 170 77.5C173.5 80 176.6 82 177 82C177.3 82 187.4 74.8 199.5 66C211.6 57.2 222.6 49.7 223.9 49.3L226.3 48.7L228.9 49.6L231.5 50.5L231.8 53.1L232.1 55.7L209.5 72.5C197.1 81.7 187 89.4 187 89.5C187 89.9 203.8 101 204.4 101C204.6 101 214.4 93.8 226.1 85C237.8 76.1 248.4 68.7 249.6 68.4L251.8 67.8L253.9 69L256 70.1V74.8L253.2 77.2C250.4 79.4 217.2 104.5 214.7 106.3L213.5 107.1L217 109.8C218.9 111.3 223 115 226.1 118.1L231.7 123.6L233.1 129.1L234.5 134.5L234.4 149.5L234.3 164.5L233.1 170.5L231.8 176.5L226.9 181.3C224.2 183.9 220.6 186.9 218.9 187.9L215.9 189.7L235.4 204.3C246.1 212.4 255.4 219.8 255.9 220.8L256.9 222.7L255.3 224.9L253.8 227.1L250.4 226.7L247 226.2L231.2 214.3C214.5 201.6 207.8 197 205.8 197C205.1 197 203.2 195.6 201.4 193.9L198.2 190.8L189.6 196.7L181 202.5L183.1 204.2C185.9 206.6 186 206.5 191.1 202.7C195 199.8 201 196.5 201 197.3C201 197.5 198.1 199.8 194.5 202.6L187.9 207.5L190.2 209C191.4 209.8 200.9 216.8 211.3 224.4L230.2 238.3L231.8 240.8L233.4 243.2L231.4 244.7C230.4 245.4 228.4 246.4 227.1 246.7L224.8 247.3L217.1 241.9C198.9 229.3 179.8 216 179 215.5L178.1 215L171.8 219.4C165.4 223.8 157 228.5 157 227.5C157 227.3 158.8 226.1 160.9 225C165.9 222.5 176.5 215.1 176.4 214.3C176.3 214 173.2 211.4 169.4 208.6C165.7 205.8 161.8 202.3 160.7 200.8L158.7 198.2L159.4 195.7L160 193.2L164.4 188.8C166.8 186.3 173.9 180.8 180.2 176.5C191.5 168.6 207 157 207 156.3C207 155 187.1 168.4 169.5 181.5C163.5 186 156.6 190.7 154.3 191.9L150 194V195.5C150 196.3 149.6 197 149 197H148V193H146.7C145.3 193 133 184.3 123.7 176.7C120.9 174.4 112.2 168 104.5 162.6C96.8 157.1 89.5 151.6 88.4 150.4C87.2 149.2 84.5 147.3 82.3 146.2C80.1 145.1 76.8 142.4 74.8 140.2L71.2 136.3L70.6 140.8C70.3 143.2 70 147.2 70 149.5V153.8L68.5 154.4L67 154.9L66.8 147.2C66.6 143 66.6 137.1 66.7 134.2L66.9 128.8L69 124.5L71.1 120.2L75.7 116.3C78.2 114.2 81.9 111.5 83.9 110.3C87.5 108 88.6 107.5 97.4 103.7L102.2 101.6L106.1 97.8C108.3 95.7 110.4 94 110.9 94C111.4 94 112.3 93.3 113 92.5L114.2 91H111.9L112.4 90.2L112.9 89.4L90.5 72.6L68.2 55.9L67.5 54.2L66.9 52.5L69 50.8L71.2 49H75.6L80.1 51.9ZM51.3 69.2C52.5 69.8 59.6 74.9 67 80.4C74.4 86 83.5 92.7 87.3 95.4C91 98.1 94 100.6 94 101C94 101.4 93.3 102.3 92.5 103L91 104.2L89.5 103.6L87.9 103L88.5 104C88.8 104.6 88.8 105.5 88.5 106L87.9 107L85.7 105.9C84.5 105.2 80.3 102.2 76.3 99.1C72.4 96 65.9 91.2 61.9 88.5C57.9 85.7 52 81.3 48.8 78.7L43 73.9V72.5C43 71.1 46.7 68 48.3 68C48.8 68 50.1 68.5 51.3 69.2ZM93.1 157.8C103.6 165.5 112.4 171.8 124.3 180.2C128.7 183.4 134.3 187.8 136.7 190.1L141 194.2V197.6L138 200.5C136.4 202 135.3 203.6 135.5 204C135.7 204.4 134.4 206.2 132.5 208L129.2 211.2L128.2 210.6L127.3 210L124.4 212.5C122.8 213.9 121.2 215 120.8 215C120.4 215 110.4 222 98.5 230.5L76.9 246H70.4L68.6 244.7L66.8 243.3L67.4 241.2L68.1 239.1L72.8 235.7C90 223.3 122 199.8 122 199.5C122 199.4 119.1 197.3 115.5 194.9L109 190.6V187.9L109.8 188.4L110.6 188.9L111.9 185.9L113.2 183H114.8L116.5 183.1L123.9 189C131.1 194.8 133.3 195.9 134.4 194.1L134.9 193.3L122.6 183.6C115.8 178.3 109.7 174 109.2 174C108.7 174 108 174.6 107.7 175.4L107.1 176.9L109.3 177.2L111.5 177.5L111.8 179.7L112.1 181.8L107.8 184.8C105.4 186.5 101.9 189.3 99.9 191.2C97.9 193 94.6 195.4 92.6 196.5C90.6 197.6 80.4 204.9 70 212.7L50.9 227H46L44.4 224.5L42.8 222.1L45.2 219.1C46.4 217.4 47.8 216.1 48.2 216.1C49 216 81 192.2 82.5 190.6C83.1 190 86.1 187.5 89.3 185.1C94.9 180.9 96.9 178.8 93.1 181.1L91.3 182.3L84.2 177L77 171.7L76.5 170L75.9 168.3L76.9 165.7C77.4 164.3 77.6 162.9 77.3 162.6C77 162.3 77.3 161.4 78 160.5L79.2 159H81.7C84.3 159 87.4 160.7 93.7 165.7L97.8 169L99 172.6L100.2 176.1L101.9 175.4C102.8 175.1 104.5 174.5 105.8 174.3L108 173.8V171.2L103.4 168.3C100.8 166.8 97.7 164.8 96.4 164C95.2 163.2 91 160.5 87.1 158.1L80 153.8L78 154.3L76 154.8V153.5C76 151.9 77.6 151.2 81.1 151.1L83.8 151L93.1 157.8ZM149.5 198.9L150 199.9L149 200.5L148 201.1V199.6C148 197.8 148.6 197.5 149.5 198.9ZM130.1 217.7L131.5 219.5L129.5 218C128.4 217.2 127.3 216.4 127.1 216.3C126.9 216.1 127.1 216 127.7 216C128.3 216 129.4 216.8 130.1 217.7ZM148.5 228L150.5 228.9H147.5C145.9 228.9 143.6 228.5 142.5 228L140.5 227.1H143.5C145.2 227.1 147.4 227.5 148.5 228ZM90 64.7C90 65.1 91.2 66.5 92.8 67.8L95.5 70.1L92.3 68.5C88.3 66.6 87.4 66.6 89 68.5C89.7 69.3 91 70 92 70C92.9 70 95.9 71.4 98.6 73.1C101.3 74.9 105.9 77.8 108.9 79.7C111.8 81.6 115.1 83.3 116.2 83.5L118.2 83.9L116.9 82.4C115.1 80.3 92.3 64 91 64C90.5 64 90 64.3 90 64.7ZM99 76.4C99 76.6 99.8 77.4 100.8 78.1L102.5 79.5L101.1 77.7C99.8 76.1 99 75.6 99 76.4ZM140.2 100.6L138 102.1L141 106.6C142.7 109 144.3 111 144.5 111C144.8 111 145 108.3 145 105V99H143.7C143 99 141.4 99.7 140.2 100.6ZM154.9 101.7C154.4 115.1 154 120.6 153.6 121.7L153.1 123H146.2L145.1 118.2L143.9 113.5L140.8 108.7C139.2 106.1 137.3 104 136.7 104C135.2 104 128 109.1 128 110.1C128 110.5 128.9 111.1 130 111.5C131.1 111.8 134.5 114.2 137.6 116.7L143.1 121.2L144 123.6L145 126H154.5L157 122L159.5 117.9L165.3 113.7L171 109.5L168.8 107.8C167.5 106.8 165.8 106 164.9 106H163.2L160.6 102.5L157.9 99H155L154.9 101.7ZM116.6 117.1C116.8 117.5 116.6 118.1 116 118.5L115 119.1L115.5 120.1L116.1 121H113.8C112.5 121 110.7 121.7 109.7 122.4L108 123.7L109.5 125L111 126.2V123.6L112.2 124.8L113.4 126H137.3L135 124C133.7 122.9 132.2 122 131.6 122C131 122 128.7 120.8 126.5 119.3L122.5 116.6L119.3 116.5L116.1 116.3L116.6 117.1ZM179.5 116.9C177.2 117.6 165 123.9 165 124.3C165 124.5 169.8 124.7 175.7 124.8C181.5 125 186.7 125.3 187.2 125.6L188 126.1V124.1L183.6 123.5L179.1 122.8L178.1 123.5C177.5 123.8 177 123.8 177 123.5C177 123.2 178.5 122.3 180.4 121.5L183.8 120L183.3 118C182.7 115.9 182.6 115.8 179.5 116.9ZM138.7 128.4L139.2 130.8L136.9 131.3L134.5 131.7L138.7 131.9L142.9 132L143.4 131.2C143.7 130.7 143.6 129.4 143.3 128.2L142.8 126H138.3L138.7 128.4ZM158.3 126.7L157 127.2V131.1L158.8 130.8C159.7 130.6 160.5 130 160.5 129.5C160.5 128.9 160.9 127.9 161.3 127.2L162.1 126L160.8 126.1C160.1 126.1 158.9 126.4 158.3 126.7ZM145.2 133.5C144 134.4 142.3 136.4 141.5 138L140 140.8L134 144.5C130.7 146.5 128 148.3 128 148.5C128 148.7 130 150.3 132.5 152C134.9 153.7 138.3 156.5 139.9 158.3L142.9 161.4L143.6 160.7C144 160.3 144.5 156.6 144.8 152.4L145.3 144.7L144 145.5L142.7 146.3L143.2 145.4C143.5 144.9 144.3 142.6 145 140.2L146.1 135.9L149.8 136.2L153.5 136.5L154.8 140.4L156 144.2L154.9 148.2L153.9 152.2L154.5 156.1C154.9 158.3 155.5 160 156 160C156.4 160 158.7 158.4 161 156.5C163.3 154.6 166.5 152.2 168.1 151.3C171.3 149.4 171.9 148 169.4 148H167.9L162.1 142.2C158.9 139.1 155.9 135.7 155.3 134.7L154.4 132.9L150.9 132.4L147.5 131.9L145.2 133.5ZM141.5 150C140.6 151.6 139.7 153 139.4 153C139.2 153 139.6 151.6 140.5 150C141.4 148.3 142.3 147 142.6 147C142.8 147 142.4 148.3 141.5 150ZM168.9 136C171.9 137.7 175.1 139.7 176 140.5C178.4 142.7 180 142.3 185.5 138.2L190.5 134.5L184.5 133.9C181.2 133.5 175.1 133.2 171 133.1L163.5 133L168.9 136ZM108 134.4C108 135.2 120 143 121.3 143C122.1 143 123.4 142.2 124.1 141.3C124.9 140.4 127.5 138.4 129.9 136.8L134.4 134H121.2C113.9 134 108 134.2 108 134.4ZM76.4 139.9C77.1 141 81 143.4 81 142.7C81 142.4 79.8 141.5 78.4 140.5L75.8 138.8L76.4 139.9ZM68.1 147.6L68.2 149.5L68.7 148.2C69 147.5 68.9 146.6 68.6 146.3C68.3 145.9 68 146.5 68.1 147.6ZM221.5 156.3L220.9 158.5L222.5 162L224.1 165.5L223.5 161.4L222.9 157.2L224.1 156.5L225.3 155.7L224.8 163.4L224.3 171L222.4 173.1C221.4 174.2 218 176.8 214.8 178.7C211.6 180.7 209 182.6 209 183C209 183.4 210.2 184.5 211.6 185.5L214.2 187.2L218.1 184.4C220.3 182.9 223.2 180.3 224.6 178.7L227 175.8V167.2C227 162.4 226.7 157.5 226.4 156.2L225.8 154H222L221.5 156.3ZM177.9 183.8C174.4 186.5 170.5 189.2 169.3 189.9L167 191.1V193C167 194 167.4 195.2 168 195.5L168.9 196.1L169.6 193.7L170.2 191.2L175.3 187.8C178.2 185.9 181.7 183.6 183.3 182.6C185.9 181 186.9 179 185.1 179C184.7 179 181.4 181.2 177.9 183.8ZM191.4 191.1L189.5 193.3L192.8 191.6C196.2 189.8 196.8 189 194.7 189C193.9 189 192.5 190 191.4 191.1ZM197.6 221.4C197.9 222.2 198.9 223.1 199.8 223.5L201.4 224.1L199.5 222C197.4 219.6 196.9 219.5 197.6 221.4ZM65 85.8V87.6L67.8 90.2C72 94.2 75.1 95.8 79.8 96.4L84.1 97L83.5 96C82 93.6 67.6 84 65.5 84C65.2 84 65 84.8 65 85.8ZM87.6 176.3C87.9 177.3 88.5 177.8 88.8 177.5C89.1 177.2 88.8 176.4 88.1 175.7L86.9 174.5L87.6 176.3ZM74.8 202.4C72.9 203.8 72.5 205 73.8 205C74.2 205 75.1 204.1 75.8 203C77.2 200.7 77.1 200.6 74.8 202.4ZM105.5 217.9C102.8 219.6 99.2 222.1 97.5 223.5L94.5 226.1L97 225.4C100.6 224.4 113.7 215.1 111.5 215C111 215 108.3 216.3 105.5 217.9Z" fill="#353C98"/>
<path d="M0 150V300H300V-4.47035e-06H0V150ZM79.9 51.2C81.9 52.4 85.1 54.6 87 56.1C88.9 57.6 97.6 64 106.2 70.4L122 82L130.2 76.6L138.5 71.2L143 70L147.5 68.8L153 69.4L158.4 70.1L163 72.7C165.5 74.1 169.6 76.8 172.3 78.7L177 82.2L182.3 78.4C185.1 76.3 193.5 70.1 200.9 64.7C208.3 59.2 216.4 53.4 218.9 51.9L223.4 49H225.8C227.1 49 229 49.5 230.1 50L232 51.1V55.7L210.8 71.6C199.1 80.3 189.1 87.8 188.6 88.2L187.6 88.8L188.9 90.4C189.6 91.2 193.4 93.9 197.5 96.4L204.8 101L226.1 85C237.8 76.2 248.4 68.7 249.6 68.4L251.8 67.8L254 69L256.1 70.1L255.8 72.8L255.5 75.5L238 88.8C228.4 96.1 219 103.1 217.3 104.3C215.5 105.5 214.1 106.8 214.3 107.2C214.4 107.7 217.7 110.4 221.5 113.3L228.5 118.7L231.4 124.4L234.3 130.1L234.8 143.3L235.2 156.5L234.1 165.3L233.1 174.2L231 177.5C229.8 179.4 226.3 183 223 185.6L217.2 190.4L235.3 204C245.3 211.6 254.3 218.6 255.3 219.8L257.2 221.9L256.5 223.8L255.9 225.8L253.2 226.8L250.4 227.8L247.9 226.5C246.5 225.7 237.8 219.4 228.4 212.4C219.1 205.5 210.1 199.1 208.3 198.4L205.1 197L199.3 200.9C196.1 203 192.7 205.6 191.8 206.7L190 208.6L194.3 211.6C196.6 213.3 205.7 220 214.5 226.4L230.5 238.2L231.7 240.4C232.4 241.5 232.9 243 233 243.6V244.7L229 246L225 247.3L220.5 244.4C214 240.2 187.2 221.7 182.6 218.2L178.7 215.3L169.6 221.5L160.5 227.6L155.8 228.9L151.1 230.2L146.5 229.6L142 228.9L136.6 226C133.6 224.5 128.8 221.4 125.8 219.2L120.5 215.3L112.5 221C108.1 224.1 98.5 231 91.1 236.4C83.7 241.7 76.6 246.3 75.3 246.6L73 247.2L70 246L67 244.8V240.4L69.8 237.8C71.3 236.5 80.7 229.4 90.8 222.1C100.8 214.8 109 208.5 109 208.1C109 207 95 197 93.5 197C92 197 83 203.4 64.7 217.3L51.9 227H45.4L44.2 225.8C43.5 225.1 43 223.7 43 222.6V220.5L45.3 218.5C46.5 217.3 55.3 210.6 64.8 203.6C74.2 196.5 82 190.4 82 190.1C82 189.7 79.7 187.7 76.9 185.5L71.8 181.5L69.2 177L66.5 172.5L66 155L65.5 137.5L66.3 132.1C67.6 123.4 70.5 119.3 81.8 110.7L87.1 106.7L84.8 105.6C83.5 105 74.6 98.6 64.9 91.4L47.3 78.2L44.2 74.4L41 70.5L42.2 70.2C42.9 70 44.5 69.4 45.7 68.8L47.8 67.7L50.2 68.3C51.5 68.7 62.2 76.2 73.9 85L95.3 101.1L103.7 95.4L112.1 89.7L111.3 88.9C110.3 88 98.1 78.7 86 69.8C80.8 65.9 74.4 60.9 71.8 58.8L67 54.8V51.1L68.8 50.1C69.7 49.5 71.8 49 73.4 49H76.3L79.9 51.2ZM148.8 134.7C150 134.9 151.8 134.9 152.8 134.7L154.5 134.2L150.5 134.3H146.5L148.8 134.7ZM157 140.4C157 140.6 157.8 141.4 158.8 142.1L160.5 143.5L159.1 141.7C157.8 140.1 157 139.6 157 140.4ZM223.4 155.5L225.3 156.9L224.8 164L224.3 171.1L222.4 173.1C221.4 174.2 217.9 176.8 214.7 178.7L208.9 182.3L211.1 184.7C212.4 185.9 213.5 187 213.7 187C215 187 222.5 178.9 224.1 175.9L226 172.1V155.2L224.4 154.6C221.8 153.6 221.4 154 223.4 155.5ZM79 156L80.5 157H78.8C77.8 157 77 157.4 77 157.8V158.6L80.7 158.2L84.3 157.7L81.9 156.4C80.6 155.7 79.1 155.1 78.5 155.1L77.5 155L79 156ZM95.1 158.3C97.5 160.2 106.9 167 116 173.4C125.1 179.9 133.5 186.2 134.8 187.3C136 188.4 137 189.1 137 188.7C137 186.8 94.1 155 91.6 155C91.1 155 92.7 156.5 95.1 158.3ZM73.6 158.2C73.3 159.5 73 162.9 73 165.9V171.3L74.9 174.4C76 176.1 79.2 179.5 82.1 181.8L87.3 186.1L88.3 185.1L89.3 184.1L86.4 181.8C84.8 180.5 81.7 177.9 79.5 175.8L75.5 172.1L75.4 164.5C75.3 156.6 74.7 154.4 73.6 158.2ZM196.9 162.7L195.5 164.5L197.3 163.1C198.2 162.4 199 161.6 199 161.4C199 160.6 198.2 161.1 196.9 162.7ZM182 173.1C177.9 175.9 173.8 178.8 173 179.7L171.5 181.2L174.5 179.4C179.1 176.6 190 168.9 190 168.4C190 167.7 189.8 167.9 182 173.1ZM183 181V181.9L184.5 181.4C185.3 181 186 180.6 186 180.4C186 180.2 185.3 180 184.5 180C183.7 180 183 180.4 183 181ZM171.3 189.1C166.9 192.2 166.2 193.4 168 194.5L169 195.1V193.9C169 193.3 170.7 191.2 172.7 189.4C177.2 185.2 176.8 185.2 171.3 189.1ZM194.9 193.9C192.9 195.3 189.2 197.7 186.6 199.2C181.4 202.3 181.1 203 184.1 204.8L186.2 206.1L190.9 202.2C193.5 200 197.1 197.3 198.8 196.3L202 194.3L200.3 192.8L198.5 191.3L194.9 193.9ZM98.5 192.9L98 193.8L106 199.5L114.1 205.2L115.5 204L117 202.8L111.5 199.5C108.5 197.6 104.8 195.2 103.4 194.1C100.5 191.8 99.4 191.5 98.5 192.9ZM125.6 211.9L125 212.8L130.3 216.8C133.1 219 136.6 221.3 138 221.9L140.5 223L138.5 221.8C137.4 221.1 134.5 218.4 132.1 215.7C127.6 210.9 126.6 210.3 125.6 211.9ZM170 214L168.5 215H169.5C170.1 215 171.2 214.5 172 214L173.5 213H172.5C172 213 170.8 213.5 170 214ZM101.6 221C99.4 222.7 98.1 224 98.6 224C99.7 224 107 219.2 107 218.5C107 217.4 105.3 218.2 101.6 221Z" fill="#1E142E"/>
</g>
<defs>
<clipPath id="clip0_1_2">
<path d="M0 28C0 12.536 12.536 0 28 0H272C287.464 0 300 12.536 300 28V272C300 287.464 287.464 300 272 300H28C12.536 300 0 287.464 0 272V28Z" fill="white"/>
</clipPath>
</defs>
</svg>
